HIERARCHY
ROOT root     
{
	OFFSET 0.0000 0.0000 0.0000
	CHANNELS 6 Xposition Yposition Zposition Zrotation Yrotation Xrotation
	JOINT pelvis   
	{
		OFFSET 0.0000 0.0000 0.0000
		CHANNELS 3 Zrotation Yrotation Xrotation
		JOINT thorax   
		{
			OFFSET 0.0000 23.0750 -5.0000
			CHANNELS 3 Zrotation Yrotation Xrotation
			JOINT rclavicle
			{
				OFFSET 0.0000 28.0009 0.0000
				CHANNELS 3 Zrotation Yrotation Xrotation
				JOINT rhumerus 
				{
					OFFSET -18.5725 5.5939 0.0000
					CHANNELS 3 Zrotation Yrotation Xrotation
					JOINT rradius  
					{
						OFFSET -24.8459 0.0000 0.0000
						CHANNELS 3 Zrotation Yrotation Xrotation
						JOINT rhand    
						{
							OFFSET -24.5477 0.0000 0.0000
							CHANNELS 3 Zrotation Yrotation Xrotation
							End Site
							{
								OFFSET -8.1826 0.0000 0.0000
							}
						}
					}
				}
			}
			JOINT lclavicle
			{
				OFFSET 0.0000 28.0009 0.0000
				CHANNELS 3 Zrotation Yrotation Xrotation
				JOINT lhumerus 
				{
					OFFSET 18.5725 5.5939 0.0000
					CHANNELS 3 Zrotation Yrotation Xrotation
					JOINT lradius  
					{
						OFFSET 24.8459 0.0000 0.0000
						CHANNELS 3 Zrotation Yrotation Xrotation
						JOINT lhand    
						{
							OFFSET 24.5477 0.0000 0.0000
							CHANNELS 3 Zrotation Yrotation Xrotation
							End Site
							{
								OFFSET 8.1826 0.0000 0.0000
							}
						}
					}
				}
			}
			JOINT head     
			{
				OFFSET 0.0000 35.2030 0.0000
				CHANNELS 3 Zrotation Yrotation Xrotation
				End Site
				{
					OFFSET 0.0000 11.7343 0.0000
				}
			}
		}
		JOINT rfemur   
		{
			OFFSET -8.2817 0.0000 0.0000
			CHANNELS 3 Zrotation Yrotation Xrotation
			JOINT rtibia   
			{
				OFFSET 0.0000 -43.3627 0.0000
				CHANNELS 3 Zrotation Yrotation Xrotation
				JOINT rfoot    
				{
					OFFSET 0.0000 -38.2947 0.0000
					CHANNELS 3 Zrotation Yrotation Xrotation
					JOINT rtoes    
					{
						OFFSET 0.0000 0.0000 16.6054
						CHANNELS 3 Zrotation Yrotation Xrotation
						End Site
						{
							OFFSET 0.0000 0.0000 5.5351
						}
					}
				}
			}
		}
		JOINT lfemur   
		{
			OFFSET 8.2817 0.0000 0.0000
			CHANNELS 3 Zrotation Yrotation Xrotation
			JOINT ltibia   
			{
				OFFSET 0.0000 -43.3627 0.0000
				CHANNELS 3 Zrotation Yrotation Xrotation
				JOINT lfoot    
				{
					OFFSET 0.0000 -38.2947 0.0000
					CHANNELS 3 Zrotation Yrotation Xrotation
					JOINT ltoes    
					{
						OFFSET 0.0000 0.0000 16.6054
						CHANNELS 3 Zrotation Yrotation Xrotation
						End Site
						{
							OFFSET 0.0000 0.0000 5.5351
						}
					}
				}
			}
		}
	}
}
MOTION
Frames: 11
Frame Time: .0333333
-86.96 77.293 1.4794 -17.1097 89.6385 -3.65329 0 -0 0 4.74422 -11.3846 19.5413 22.6529 -12.29 -5.00466e-05 53.3672 -19.1418 4.94957 -0 61.4372 -0 0.608002 2.9344 0.0156 -20.106 13.3825 6.59034e-05 -44.9966 9.47734 1.88095 1.1797e-05 -89.6573 -1.17127e-05 1.41558 4.45933 0.0550992 -3.79296 4.54265 -13.9151 8.16541 -13.1021 -51.2797 -0 -0 53.7988 1.01933e-06 -1.15432 -4.02369 0.0810003 1.77181e-07 -19.2524 3.60537 7.95056 -6.00102 -0 -0 48.374 -2.38187e-05 13.2063 -10.9187 -2.54516 4.09963e-05 -59.6808 
-86.219 77.278 1.6957 -19.8966 89.5208 -6.28903 0 -0 0 5.07633 -11.4922 19.3453 22.6625 -12.2361 -3.46142e-05 53.1106 -18.8084 4.75701 -6.46141e-07 61.4762 -1.0866e-06 0.404995 2.9656 0.0104999 -20.1198 13.3254 -0.000105668 -45.5126 9.77467 1.88659 0 -88.8314 0 1.36151 4.45531 0.0530007 -3.78157 4.49779 -13.8988 8.27496 -13.1027 -51.0753 -0 -0 54.3018 -3.8197e-07 -1.07909 -4.67974 0.0880002 -3.31903e-07 -19.7931 3.83688 7.81985 -6.20571 -0 -0 49.3277 -4.27871e-05 13.0168 -9.62513 -2.21352 -1.17675e-05 -61.3242 
-85.505 77.276 1.9007 -20.4981 89.4552 -6.71505 0 -0 0 5.3776 -11.6023 19.1489 22.6752 -12.1682 0.000112528 52.9193 -18.429 4.48994 -7.68198e-07 61.4675 -4.56736e-07 0.179495 2.99841 0.00469991 -20.1256 13.2516 -0.000101857 -46.0448 10.0682 1.89056 -8.15914e-07 -88.0583 1.41856e-06 1.32116 4.44146 0.0511983 -3.74765 4.42306 -13.9144 8.35667 -13.1127 -50.8878 -0 -0 54.7487 5.00786e-07 -0.999899 -5.25368 0.0915993 5.82354e-08 -20.1326 4.01711 7.67201 -6.53503 -0 -0 50.3781 3.02423e-05 12.8647 -8.23965 -1.87474 -1.71463e-05 -62.6339 
-84.815 77.285 2.0952 -19.6976 89.4177 -5.72077 0 -0 0 5.65529 -11.7056 18.9624 22.6893 -12.0828 9.21408e-05 52.7911 -18.0154 4.14853 -4.55919e-07 61.4285 -7.67411e-07 -0.0597002 3.02407 -0.00159999 -20.1248 13.1626 7.73037e-05 -46.5891 10.3558 1.89517 5.1467e-06 -87.271 -4.90795e-06 1.29357 4.41578 0.049899 -3.69694 4.32085 -13.965 8.41902 -13.1292 -50.7147 -0 -0 55.1438 1.60576e-07 -0.920002 -5.76627 0.0924002 -5.53741e-07 -20.2865 4.15324 7.52636 -6.97339 -0 -0 51.5176 -1.38678e-05 12.758 -6.78273 -1.53179 -7.86969e-06 -63.4472 
-84.149 77.306 2.2795 -17.5058 89.4686 -3.34438 0 -0 0 5.91205 -11.7906 18.7952 22.6977 -11.9772 -4.36815e-05 52.7254 -17.5743 3.73845 -6.43025e-07 61.3718 -1.08359e-06 -0.306505 3.03827 -0.00810011 -20.1239 13.063 -7.00175e-05 -47.1413 10.6331 1.90367 4.3988e-06 -86.4898 -4.13727e-06 1.27639 4.37889 0.0487995 -3.63338 4.19534 -14.0514 8.46529 -13.1468 -50.5476 -0 -0 55.4874 -5.03317e-07 -0.843805 -6.24184 0.0917992 2.77655e-08 -20.2817 4.24918 7.40208 -7.50268 -0 -0 52.7254 1.78529e-05 12.7018 -5.28922 -1.19031 2.46154e-06 -63.5945 
-83.502 77.337 2.4537 -13.7714 89.4054 0.603136 0 -0 0 6.14379 -11.8462 18.6598 22.6965 -11.8514 7.17455e-05 52.7188 -17.1056 3.27686 -6.40931e-07 61.3007 -1.08157e-06 -0.559196 3.03953 -0.0147999 -20.1221 12.9599 -5.09919e-05 -47.6958 10.8909 1.92186 -7.1249e-07 -85.6987 1.31175e-06 1.26739 4.33288 0.0478999 -3.55911 4.05184 -14.1716 8.49556 -13.1592 -50.3781 -0 -0 55.7838 5.44218e-07 -0.775801 -6.70089 0.0905004 2.49512e-07 -20.1888 4.30487 7.31843 -8.10047 -0 -0 53.9791 1.09935e-05 12.7104 -3.80786 -0.858199 -4.71636e-06 -62.9136 
-82.874 77.378 2.6204 -9.59305 89.5094 4.94554 0 -0 0 6.36113 -11.8634 18.5576 22.6863 -11.6992 4.09277e-05 52.7596 -16.6246 2.76479 -0 61.2345 -0 -0.807591 3.02069 -0.0212995 -20.122 12.8486 -0.000108573 -48.2511 11.1392 1.94863 0 -84.8943 0 1.26548 4.27877 0.0472992 -3.47829 3.89516 -14.3154 8.51761 -13.154 -50.195 -0 -0 56.0266 -5.54865e-07 -0.723899 -7.1643 0.0902993 3.52873e-07 -19.992 4.33366 7.29567 -8.75393 -0 -0 55.2671 -5.53882e-06 12.7856 -2.39655 -0.543601 6.8284e-06 -61.3061 
-82.262 77.428 2.7807 -5.75809 89.3732 8.98886 0 -0 0 6.56356 -11.8349 18.4909 22.6683 -11.5194 -1.96247e-05 52.8419 -16.1349 2.21582 -0 61.1788 -0 -1.0483 2.98246 -0.0273004 -20.1243 12.7316 -9.24266e-05 -48.806 11.379 1.98639 0 -84.0898 0 1.26908 4.21972 0.0467995 -3.39202 3.73045 -14.4757 8.53353 -13.1241 -49.9904 -0 -0 56.2159 3.06689e-07 -0.691902 -7.6442 0.0919991 -2.56135e-07 -19.7209 4.33879 7.34841 -9.44723 -0 -0 56.5659 7.04858e-06 12.9345 -1.12109 -0.257505 2.43392e-06 -58.7209 
-81.662 77.487 2.9344 -2.41458 89.3165 12.498 0 -0 0 6.74085 -11.7565 18.4656 22.6401 -11.3234 1.74741e-05 52.9503 -15.6196 1.66379 -7.61175e-07 61.124 -4.49476e-07 -1.28643 2.93219 -0.0329007 -20.1268 12.6227 -2.76368e-05 -49.3569 11.5968 2.04407 2.36475e-06 -83.2907 -2.10289e-06 1.27623 4.16068 0.0464009 -3.298 3.56417 -14.6414 8.53625 -13.0638 -49.7527 -0 -0 56.3471 5.38426e-07 -0.680801 -8.13878 0.0964005 8.6386e-07 -19.4698 4.31634 7.48461 -10.1616 -0 -0 57.8563 -8.57123e-08 13.1691 -0.0465002 -0.0108999 -3.65421e-08 -55.1912 
-81.074 77.554 3.0829 -0.0764638 89.1792 14.9982 0 -0 0 6.89456 -11.6283 18.4793 22.6084 -11.1077 1.40951e-05 53.0733 -15.0906 1.11279 -4.48544e-07 61.0807 -7.60267e-07 -1.51545 2.87091 -0.0380014 -20.1275 12.5196 -5.8549e-05 -49.9035 11.8045 2.11919 0 -82.4906 0 1.28683 4.1037 0.0460971 -3.19631 3.40013 -14.7989 8.5281 -12.9687 -49.4798 -0 -0 56.4204 4.07779e-07 -0.691204 -8.64291 0.103899 -3.59325e-07 -19.2535 4.27127 7.70722 -10.8913 -0 -0 59.1202 -3.72313e-06 13.4891 0.778996 0.186897 -1.12772e-06 -50.8835 
-80.496 77.628 3.2273 1.32552 88.9484 16.5649 0 -0 0 7.02433 -11.454 18.5268 22.577 -10.8819 4.30577e-07 53.1975 -14.5319 0.590283 -7.59407e-07 61.0342 -4.47638e-07 -1.73841 2.80732 -0.0426015 -20.1256 12.4295 -0.000128182 -50.4443 11.9982 2.21772 1.57908e-06 -81.6838 -1.36506e-06 1.30056 4.05185 0.0459993 -3.08686 3.24194 -14.9373 8.50975 -12.8384 -49.1685 -0 -0 56.4349 3.46868e-07 -0.721504 -9.14663 0.114702 -2.31452e-07 -19.0772 4.20649 8.01173 -11.6333 -0 -0 60.3437 1.24241e-05 13.8971 1.32793 0.328494 -3.56277e-06 -46.0682 
